<svg width="105" height="105" viewBox="0 0 105 105" fill="none" xmlns="http://www.w3.org/2000/svg">
<path d="M79.708 51.0136C86.1655 51.4435 91.9438 47.0335 93.2104 40.6941C91.6518 38.2824 88.9874 36.8321 86.1196 36.8321C78.6646 36.6614 74.6647 45.5307 79.7113 51.0169L79.708 51.0136ZM49.596 15.4121L67.1802 5.22707L61.5758 2.06723L37.3241 16.1143L39.2568 17.1905L42.9285 19.2544L49.596 15.3957V15.4121ZM69.4344 4.28864C69.7265 4.37723 69.9627 4.61676 70.0513 4.90551L78.2019 29.82C78.3562 30.2499 78.1855 30.7125 77.7918 30.9488C71.3343 34.7419 68.2237 42.3971 70.1891 49.6289C72.3416 57.4744 79.8262 62.5997 87.9112 61.7794C88.3541 61.7433 88.7807 62.0189 88.9185 62.4455L97.3283 88.0491C97.4629 88.4789 97.2923 88.9383 96.9182 89.1778L71.1308 104.833C71.0094 104.902 70.8552 104.951 70.701 104.951C70.4779 105.003 70.2416 104.951 70.0349 104.816L60.9623 98.9199C60.8048 98.8182 60.6866 98.6672 60.6046 98.4966L42.899 56.1816L15.9304 72.1777C15.8779 72.2138 15.809 72.2466 15.7598 72.2827C15.4841 72.4008 15.1593 72.3647 14.9033 72.2138L8.8035 68.6274C8.35725 68.3879 8.18663 67.8235 8.42616 67.3772L34.5219 15.7008C34.604 15.5138 34.7746 15.3596 34.9649 15.271L61.0804 0.147698C61.3691 -0.0229273 61.7268 -0.0393336 62.0385 0.131291L69.4344 4.28864ZM42.1279 21.023L35.7885 17.4497L10.5458 67.4199L15.1265 70.1204L36.8844 40.5399C37.0912 40.2479 37.4324 40.0936 37.7737 40.1461C38.1149 40.1822 38.4037 40.3988 38.5447 40.7269L62.2616 97.4794L68.6043 101.584L42.1476 21.023H42.1279ZM86.1163 55.6632C78.7138 55.6632 73.6902 48.1425 76.5252 41.3044C79.3471 34.4696 88.2163 32.7108 93.4434 37.9411C95.3957 39.8869 96.4883 42.5218 96.4883 45.2747C96.5048 51.0136 91.8552 55.6632 86.1163 55.6632Z" fill="black"/>
</svg>
