<svg width="120" height="120" viewBox="0 0 120 120" fill="none" xmlns="http://www.w3.org/2000/svg">
<g clip-path="url(#clip0_415_185)">
<path d="M89.5425 94.6291H89.0906V94.3762H90.3077V94.6291H89.8584V95.891H89.5425V94.6291ZM91.97 94.695H91.9629L91.5147 95.8915H91.3097L90.8647 94.695H90.8594V95.8915H90.5614V94.3767H90.9998L91.4125 95.4493L91.8238 94.3767H92.2606V95.8915H91.9698L91.97 94.695Z" fill="#E76F00"/>
<path d="M49.072 63.6544C49.072 63.6544 45.9266 65.4835 51.3105 66.1025C57.8328 66.8466 61.1664 66.7399 68.3541 65.3795C68.3541 65.3795 70.2438 66.5644 72.8829 67.5907C56.77 74.4964 36.4161 67.1907 49.072 63.6544ZM47.1031 54.6428C47.1031 54.6428 43.5752 57.2542 48.9631 57.8115C55.9305 58.5303 61.4328 58.5891 70.9539 56.7557C70.9539 56.7557 72.2711 58.0908 74.3418 58.8209C54.8601 64.5176 33.1611 59.2702 47.1031 54.6428Z" fill="#5382A1"/>
<path d="M63.7016 39.3561C67.6718 43.9271 62.6587 48.0407 62.6587 48.0407C62.6587 48.0407 72.7393 42.8365 68.1097 36.3197C63.7857 30.2421 60.4697 27.2227 78.4211 16.8115C78.4213 16.8113 50.2433 23.8488 63.7016 39.3561Z" fill="#E76F00"/>
<path d="M85.0123 70.3197C85.0123 70.3197 87.34 72.2378 82.4488 73.7214C73.1482 76.5389 43.7387 77.3897 35.5688 73.8338C32.632 72.556 38.1394 70.783 39.8718 70.4109C41.6786 70.0191 42.7111 70.0921 42.7111 70.0921C39.445 67.7913 21.6005 74.6096 33.6469 76.5626C66.4994 81.8903 93.534 74.1635 85.0123 70.3197ZM50.5845 45.3057C50.5845 45.3057 35.6249 48.8588 45.287 50.1491C49.3666 50.6953 57.4991 50.5718 65.0742 49.937C71.2651 49.4148 77.4818 48.3047 77.4818 48.3047C77.4818 48.3047 75.2988 49.2395 73.7195 50.3177C58.5283 54.3133 29.1818 52.4544 37.6302 48.3677C44.7751 44.9139 50.5845 45.3057 50.5845 45.3057ZM77.4202 60.3059C92.8627 52.2813 85.7229 44.5696 80.739 45.6087C79.5175 45.863 78.9729 46.0833 78.9729 46.0833C78.9729 46.0833 79.4266 45.3729 80.2922 45.0654C90.1515 41.5992 97.7339 55.2885 77.1096 60.7105C77.1096 60.7105 77.3489 60.4971 77.4202 60.3059Z" fill="#5382A1"/>
<path d="M68.1098 0C68.1098 0 76.6622 8.55498 59.9983 21.7107C46.6356 32.2634 56.9512 38.2804 59.9928 45.1553C52.193 38.1176 46.4688 31.9227 50.309 26.1568C55.9454 17.693 71.5605 13.5894 68.1098 0Z" fill="#E76F00"/>
<path d="M52.102 82.0505C66.9249 82.9994 89.6872 81.5241 90.226 74.5105C90.226 74.5105 89.19 77.1691 77.9757 79.2809C65.3243 81.6616 49.72 81.3839 40.4651 79.858C40.4655 79.8575 42.3599 81.4258 52.102 82.0505Z" fill="#5382A1"/>
<path d="M49.6728 108.851C48.2744 110.064 46.7976 110.745 45.4723 110.745C43.5805 110.745 42.5585 109.61 42.5585 107.791C42.5585 105.823 43.6538 104.384 48.0468 104.384H49.6725L49.6728 108.851ZM53.5312 113.204V99.7285C53.5312 96.2859 51.5678 94.0146 46.834 94.0146C44.0704 94.0146 41.6496 94.697 39.682 95.5673L40.2499 97.9526C41.7991 97.384 43.8044 96.8547 45.7726 96.8547C48.4996 96.8547 49.6728 97.9526 49.6728 100.223V101.926H48.3117C41.6862 101.926 38.6974 104.498 38.6974 108.358C38.6974 111.69 40.667 113.584 44.3754 113.584C46.7592 113.584 48.5387 112.599 50.2021 111.159L50.504 113.205L53.5312 113.204ZM66.408 113.204H61.5959L55.8043 94.3558H60.007L63.6005 105.936L64.3994 109.419C66.2175 104.383 67.5035 99.2746 68.1467 94.3558H72.2347C71.1392 100.562 69.1683 107.375 66.408 113.204ZM84.869 108.851C83.4681 110.064 81.9888 110.745 80.6632 110.745C78.7748 110.745 77.7501 109.61 77.7501 107.791C77.7501 105.823 78.8476 104.384 83.2405 104.384H84.869V108.851ZM88.727 113.204V99.7285C88.727 96.2859 86.759 94.0146 82.0303 94.0146C79.2649 94.0146 76.8432 94.697 74.8765 95.5673L75.4438 97.9526C76.9934 97.384 79.0025 96.8547 80.9692 96.8547C83.6941 96.8547 84.869 97.9526 84.869 100.223V101.926H83.5056C76.8782 101.926 73.8906 104.498 73.8906 108.358C73.8906 111.69 75.8586 113.584 79.5664 113.584C81.9517 113.584 83.7305 112.599 85.3966 111.159L85.6997 113.205L88.727 113.204ZM34.4667 116.405C33.3668 118.011 31.5902 119.281 29.6453 120L27.7402 117.758C29.2206 116.999 30.4903 115.772 31.0802 114.629C31.5904 113.613 31.8016 112.303 31.8016 109.171V87.6526H35.901V108.876C35.9008 113.064 35.566 114.755 34.4667 116.405Z" fill="#E76F00"/>
</g>
<defs>
<clipPath id="clip0_415_185">
<rect width="120" height="120" fill="white"/>
</clipPath>
</defs>
</svg>
