<svg width="130" height="130" viewBox="0 0 130 130" fill="none" xmlns="http://www.w3.org/2000/svg">
<path d="M39.7936 92.2739H36.2741C36.1497 86.3403 35.8069 80.7619 35.2465 75.5347H35.2152L29.8568 92.2739H27.1772L21.8508 75.5347H21.8202C21.425 80.5533 21.1761 86.1331 21.0727 92.2739H17.8647C18.0715 84.8064 18.5911 77.8056 19.4215 71.2708H23.7836L28.8605 86.7037H28.8917L33.9999 71.2708H38.1736C39.0877 78.9251 39.6276 85.9266 39.7936 92.2739ZM55.0569 76.7778C53.6239 84.5449 51.7333 90.1885 49.3869 93.7113C47.5589 96.4231 45.556 97.7803 43.3749 97.7803C42.7935 97.7803 42.076 97.605 41.2259 97.2572V95.3844C41.6414 95.4442 42.129 95.4782 42.6894 95.4782C43.7082 95.4782 44.527 95.1983 45.1513 94.6372C45.8981 93.9538 46.2714 93.1855 46.2714 92.3357C46.2714 91.7529 45.9804 90.5614 45.3996 88.7572L41.5373 76.7771H44.9949L47.767 85.737C48.3899 87.7715 48.6497 89.192 48.5457 90.001C50.0616 85.9571 51.1205 81.5478 51.7237 76.7764H55.0569V76.7778Z" fill="#5D87A1"/>
<path d="M101.905 92.2744H91.9074V71.2712H95.2705V89.689H101.905V92.2744ZM89.2904 92.7818L85.4248 90.8764C85.7676 90.5952 86.0954 90.2908 86.3905 89.9383C88.0336 88.0104 88.8531 85.1594 88.8531 81.3832C88.8531 74.4347 86.1232 70.9587 80.6614 70.9587C77.9832 70.9587 75.894 71.8405 74.3998 73.6046C72.7581 75.5338 71.9386 78.3746 71.9386 82.1304C71.9386 85.8224 72.6649 88.5308 74.1183 90.2487C75.4479 91.805 77.4521 92.5841 80.1323 92.5841C81.1321 92.5841 82.0495 92.4619 82.8853 92.2153L87.918 95.1417L89.2904 92.7818ZM76.7679 88.0716C75.9164 86.7035 75.4907 84.5066 75.4907 81.4776C75.4907 76.1893 77.0991 73.5421 80.3194 73.5421C82.0026 73.5421 83.2363 74.1752 84.0252 75.4387C84.8753 76.8088 85.3031 78.986 85.3031 81.9729C85.3031 87.3046 83.6933 89.9709 80.4751 89.9709C78.7912 89.9716 77.5575 89.3405 76.7679 88.0716ZM70.473 86.4528C70.473 88.2339 69.8188 89.6951 68.5116 90.8397C67.2031 91.9796 65.4485 92.5509 63.2498 92.5509C61.1932 92.5509 59.1991 91.8947 57.269 90.589L58.1729 88.7855C59.8337 89.6163 61.3373 90.0293 62.6873 90.0293C63.9543 90.0293 64.9445 89.7488 65.6627 89.1924C66.3802 88.634 66.808 87.8508 66.808 86.8604C66.808 85.6125 65.9368 84.546 64.3386 83.6528C62.8648 82.8444 59.9173 81.1543 59.9173 81.1543C58.3198 79.9913 57.52 78.7428 57.52 76.6859C57.52 74.9836 58.1164 73.6094 59.31 72.5639C60.5049 71.5144 62.0467 70.9913 63.9367 70.9913C65.8885 70.9913 67.6629 71.5137 69.2611 72.5476L68.4504 74.3518C67.0834 73.7717 65.7341 73.4816 64.4032 73.4816C63.3252 73.4816 62.4928 73.7405 61.9141 74.2601C61.3305 74.7777 60.9708 75.4401 60.9708 76.2525C60.9708 77.4943 61.8603 78.5743 63.5021 79.4853C64.9956 80.295 68.0165 82.0143 68.0165 82.0143C69.6549 83.1752 70.473 84.4122 70.473 86.4528Z" fill="#F8981D"/>
<path d="M106.127 64.2365C104.093 64.1849 102.519 64.3893 101.197 64.9477C100.816 65.0999 100.209 65.0999 100.156 65.5815C100.362 65.7853 100.386 66.1141 100.565 66.3953C100.87 66.9027 101.401 67.5854 101.886 67.9414C102.418 68.349 102.953 68.7524 103.513 69.1077C104.501 69.7184 105.621 70.0737 106.584 70.6823C107.146 71.0362 107.703 71.4941 108.265 71.8752C108.541 72.0783 108.718 72.4077 109.076 72.5348V72.4573C108.897 72.2291 108.846 71.899 108.67 71.6449L107.907 70.9099C107.169 69.9208 106.253 69.0575 105.265 68.3483C104.452 67.7885 102.673 67.0277 102.343 66.0916L102.291 66.04C102.85 65.9877 103.513 65.7853 104.044 65.6297C104.909 65.4022 105.697 65.4538 106.584 65.2262C106.992 65.1243 107.397 64.9966 107.806 64.8709V64.642C107.346 64.1849 107.018 63.5776 106.535 63.1455C105.241 62.0295 103.816 60.9378 102.343 60.0242C101.554 59.5154 100.539 59.188 99.6992 58.7552C99.3966 58.6024 98.8865 58.527 98.7083 58.2729C98.2527 57.7146 97.9963 56.9796 97.6658 56.3186C96.9313 54.924 96.2179 53.3766 95.584 51.9018C95.1256 50.9128 94.8468 49.9251 94.2878 49.0101C91.6694 44.6965 88.8259 42.084 84.4557 39.5196C83.5165 38.9857 82.3991 38.7581 81.2055 38.4782L79.2992 38.3777C78.8925 38.1997 78.4852 37.7168 78.1302 37.4885C76.6802 36.5755 72.9472 34.5967 71.8808 37.2093C71.1939 38.8607 72.8969 40.4842 73.4817 41.3218C73.9136 41.9033 74.4733 42.5649 74.7753 43.2252C74.9541 43.6565 75.0045 44.1144 75.1833 44.5702C75.59 45.6869 75.9702 46.9294 76.5047 47.9714C76.7836 48.5026 77.0876 49.061 77.444 49.5419C77.648 49.8232 78.003 49.9475 78.0805 50.406C77.7262 50.9114 77.6983 51.6743 77.495 52.3087C76.5809 55.176 76.938 58.7281 78.2335 60.8353C78.6389 61.4697 79.606 62.8663 80.8995 62.3311C82.0448 61.8746 81.7911 60.4284 82.1203 59.1601C82.1957 58.8537 82.1461 58.6527 82.2984 58.4516V58.5012C82.6528 59.2111 83.0105 59.8951 83.339 60.607C84.1272 61.8494 85.4996 63.1442 86.6429 64.0049C87.2515 64.4641 87.7337 65.2493 88.4961 65.5299V65.4538H88.4458C88.2914 65.2262 88.0656 65.1243 87.8629 64.9477C87.4046 64.4905 86.8972 63.9322 86.5415 63.4254C85.4765 62.0036 84.5339 60.4297 83.6974 58.8055C83.288 58.0175 82.935 57.1562 82.6052 56.3696C82.4515 56.0659 82.4515 55.6081 82.1964 55.4552C81.8142 56.0129 81.2572 56.4959 80.9784 57.1793C80.4948 58.2723 80.4445 59.6166 80.265 61.0146L80.165 61.0635C79.3557 60.8604 79.0741 60.0242 78.7667 59.3143C78.0057 57.5115 77.8779 54.6176 78.5382 52.5376C78.715 52.0058 79.4801 50.3306 79.1748 49.8239C79.0218 49.3382 78.5131 49.0617 78.2342 48.6792C77.9064 48.1983 77.5473 47.5896 77.3188 47.0557C76.7095 45.6353 76.4027 44.0614 75.7464 42.6417C75.4397 41.98 74.9072 41.2953 74.476 40.686C73.9918 40.0012 73.4593 39.5189 73.0764 38.7072C72.9499 38.428 72.7724 37.9715 72.9758 37.6678C73.0254 37.4641 73.1288 37.388 73.3314 37.337C73.6606 37.0592 74.6012 37.4124 74.931 37.5653C75.8729 37.9457 76.6605 38.3009 77.4467 38.8335C77.8024 39.0883 78.1839 39.5706 78.6402 39.6976H79.1748C79.9861 39.8742 80.9009 39.7465 81.6646 39.9761C83.0105 40.4081 84.2299 41.0419 85.3235 41.726C88.6512 43.8338 91.3953 46.8288 93.2479 50.406C93.5519 50.9888 93.6811 51.5228 93.9586 52.1307C94.4938 53.3752 95.1556 54.6441 95.6867 55.8621C96.2206 57.0543 96.7293 58.2716 97.4917 59.262C97.8718 59.7946 99.3993 60.0738 100.084 60.353C100.591 60.5805 101.38 60.7829 101.837 61.0621C102.701 61.594 103.562 62.2047 104.375 62.7896C104.78 63.0939 106.051 63.7284 106.127 64.2365ZM80.2112 42.1838C79.8605 42.1802 79.5108 42.2231 79.1714 42.3115V42.3625H79.2203C79.4251 42.768 79.7807 43.0492 80.0344 43.4031C80.2391 43.81 80.4166 44.2135 80.6173 44.6198L80.6662 44.5695C81.0246 44.3161 81.2028 43.9099 81.2028 43.3006C81.0484 43.1212 81.0246 42.946 80.8961 42.768C80.7465 42.5139 80.4166 42.3876 80.2112 42.1838Z" fill="#5D87A1"/>
<path d="M108.546 92.2706H109.073V89.6975H108.283L107.639 91.4534L106.939 89.6975H106.179V92.2706H106.676V90.3129H106.704L107.437 92.2706H107.816L108.546 90.3129V92.2706ZM104.306 92.2706H104.863V90.1336H105.592V89.6968H103.546V90.1336H104.305L104.306 92.2706Z" fill="#F8981D"/>
</svg>
