<svg width="105" height="105" viewBox="0 0 105 105" fill="none" xmlns="http://www.w3.org/2000/svg">
<g clip-path="url(#clip0_124_949)">
<path d="M95.2835 79.7724L59.2746 3.30229C58.3631 1.38501 56.4738 0.121808 54.3537 0.0120968C52.2288 -0.13028 50.201 0.920951 49.0926 2.73953L10.0369 65.9965C8.82447 67.9465 8.84998 70.422 10.1024 72.3466L29.197 101.916C30.6806 104.196 33.4871 105.228 36.0941 104.453L91.5065 88.062C93.1945 87.5685 94.5857 86.3673 95.3201 84.7692C96.0446 83.1788 96.0321 81.3502 95.2861 79.7698L95.2835 79.7724ZM87.2216 83.0521L40.2009 96.9562C38.7666 97.3829 37.3898 96.1396 37.6882 94.6921L54.4872 14.2539C54.8013 12.7488 56.8796 12.5106 57.5366 13.9031L88.6351 79.9425C88.9133 80.5381 88.9167 81.2257 88.6442 81.8239C88.3718 82.4222 87.8509 82.871 87.219 83.0521H87.2216Z" fill="black"/>
</g>
<defs>
<clipPath id="clip0_124_949">
<rect width="105" height="105" fill="white"/>
</clipPath>
</defs>
</svg>
