<svg width="120" height="120" viewBox="0 0 120 120" fill="none" xmlns="http://www.w3.org/2000/svg">
<path d="M101.025 81.96C88.68 98.405 62.32 92.855 45.415 93.65C45.415 93.65 42.42 93.82 39.41 94.315C39.41 94.315 40.55 93.83 42.005 93.325C53.875 89.22 59.485 88.395 66.7 84.69C80.25 77.75 93.74 62.625 96.485 46.915C91.325 62.025 75.635 75.03 61.35 80.31C51.575 83.92 33.89 87.43 33.885 87.43C33.6447 87.307 33.4064 87.1803 33.17 87.05C21.145 81.2 20.795 55.15 42.64 46.755C52.22 43.075 61.375 45.095 71.73 42.63C82.77 40.005 95.56 31.73 100.755 20.91C106.58 38.2 113.58 65.24 101.025 81.96ZM101.235 15.56C99.8384 18.9087 98.051 22.0807 95.91 25.01C91.2559 20.2132 85.6858 16.4001 79.5301 13.7968C73.3744 11.1935 66.7585 9.85302 60.075 9.85498C32.46 9.85498 10 32.315 10 59.925C9.99678 66.8121 11.4188 73.6254 14.1767 79.9362C16.9346 86.2471 20.9686 91.9189 26.025 96.595L27.125 97.565C26.3232 96.7619 25.8732 95.6732 25.8739 94.5384C25.8746 93.4036 26.326 92.3155 27.1288 91.5134C27.9315 90.7113 29.02 90.2608 30.1548 90.2611C31.2896 90.2613 32.3779 90.7122 33.1803 91.5147C33.9828 92.3171 34.4337 93.4054 34.4339 94.5402C34.4342 95.675 33.9837 96.7635 33.1816 97.5662C32.3795 98.369 31.2914 98.8204 30.1566 98.8211C29.0218 98.8218 27.9331 98.3718 27.13 97.57L27.875 98.23C36.877 105.841 48.2869 110.011 60.075 110C86.465 110 108.14 89.46 109.995 63.54C111.365 50.845 107.615 34.725 101.235 15.56Z" fill="#69B72A"/>
</svg>
