<svg width="105" height="105" viewBox="0 0 105 105" fill="none" xmlns="http://www.w3.org/2000/svg">
<path d="M94.1325 6.5625H10.8675C8.48991 6.5625 6.5625 8.48991 6.5625 10.8675V94.1325C6.5625 96.5101 8.48991 98.4375 10.8675 98.4375H94.1325C96.5101 98.4375 98.4375 96.5101 98.4375 94.1325V10.8675C98.4375 8.48991 96.5101 6.5625 94.1325 6.5625Z" fill="#3178C6"/>
<path fill-rule="evenodd" clip-rule="evenodd" d="M59.8665 77.9593V88.0262C61.6956 88.929 63.6448 89.5644 65.6546 89.9129C67.9771 90.3417 70.3345 90.5526 72.6962 90.5429C74.9979 90.5538 77.2944 90.3218 79.5474 89.8506C81.5703 89.4418 83.5003 88.6631 85.2404 87.5537C86.8558 86.5109 88.1873 85.0836 89.1155 83.3996C90.7779 79.9127 90.9972 75.9107 89.7258 72.2631C89.1893 70.899 88.39 69.6537 87.3732 68.5979C86.2818 67.4753 85.042 66.5071 83.6883 65.7202C82.1299 64.8075 80.5106 64.0028 78.8419 63.3118C77.5294 62.7671 76.3482 62.2378 75.2982 61.7237C74.3656 61.2772 73.4731 60.7513 72.6305 60.152C71.9706 59.6893 71.3975 59.114 70.9374 58.4523C70.5399 57.8515 70.3329 57.1448 70.3435 56.4245C70.3347 55.7615 70.5195 55.1104 70.8751 54.5509C71.2613 53.9653 71.7765 53.4759 72.3812 53.1202C73.1203 52.6851 73.9247 52.3715 74.7634 52.1917C75.793 51.9629 76.8455 51.8528 77.9002 51.8635C78.7873 51.8666 79.6731 51.9302 80.5515 52.0538C81.5001 52.1821 82.4386 52.3762 83.3602 52.6346C84.2977 52.8945 85.2146 53.2235 86.1033 53.619C86.9658 54.0034 87.7907 54.467 88.5676 55.0037V45.6095C86.9503 44.9976 85.2731 44.5577 83.5637 44.297C81.4994 43.9966 79.4152 43.8551 77.3293 43.8737C75.0492 43.8614 72.7758 44.1203 70.5568 44.6448C68.5511 45.1031 66.644 45.9177 64.9262 47.0499C63.3304 48.113 62.0128 49.5431 61.0838 51.2204C60.0993 53.0831 59.6122 55.1683 59.6696 57.2743C59.5969 60.0594 60.5142 62.78 62.2585 64.9524C64.3985 67.3611 67.097 69.2078 70.1171 70.3304C71.4952 70.8992 72.7804 71.4559 73.9726 72.0006C75.0482 72.4792 76.0821 73.0466 77.0635 73.697C77.8551 74.2119 78.5503 74.8616 79.1176 75.6165C79.6164 76.3012 79.881 77.1286 79.8723 77.9757C79.8768 78.6105 79.7138 79.2353 79.3998 79.787C79.0508 80.3798 78.5604 80.877 77.9724 81.234C77.2366 81.6826 76.4317 82.0063 75.5902 82.1921C74.4941 82.4372 73.373 82.5528 72.2499 82.5367C70.0459 82.5326 67.8595 82.144 65.7891 81.3882C63.6262 80.6077 61.6203 79.4464 59.8665 77.9593ZM42.9549 52.8971H56.0799V44.6054H19.4841V52.8971H32.5501V89.8243H42.9549V52.8971Z" fill="white"/>
</svg>
