<svg width="101" height="64" viewBox="0 0 101 64" fill="none" xmlns="http://www.w3.org/2000/svg">
<g clip-path="url(#clip0_21_17)">
<path d="M13.0759 0V4.15529C11.9772 4.15529 11.1199 4.31899 10.5042 4.64637C9.88841 4.96116 9.62279 5.59704 9.70731 6.55403L10.2687 12.1259C10.4136 13.5361 10.2627 14.6757 9.81597 15.5445C9.38132 16.4133 8.71122 17.0808 7.80569 17.5467C6.91224 18 5.85578 18.3211 4.63632 18.5099C5.92821 18.7113 7.02089 19.0388 7.91436 19.4921C8.80781 19.9453 9.4598 20.6001 9.87031 21.4564C10.2808 22.3127 10.4136 23.4585 10.2687 24.894L9.70731 30.4659C9.62279 31.4228 9.88841 32.0587 10.5042 32.3735C11.1199 32.7008 11.9772 32.8645 13.0759 32.8645V37.0199C9.74353 37.0199 7.40122 36.4909 6.04895 35.4333C4.70877 34.3881 4.16544 32.5939 4.41899 30.0503L4.96232 24.6484C5.05891 23.6915 4.90195 22.9423 4.49144 22.4008C4.09301 21.8593 3.50139 21.4816 2.71659 21.2675C1.9318 21.0409 1.02627 20.9276 0 20.9276V16.0923C1.0142 16.0923 1.91369 15.9852 2.69849 15.7712C3.48329 15.5445 4.08094 15.1605 4.49144 14.6191C4.90195 14.0776 5.05891 13.3284 4.96232 12.3714L4.41899 7.00732C4.15338 4.41341 4.69669 2.6002 6.04895 1.56768C7.40122 0.522559 9.74353 0 13.0759 0Z" fill="url(#paint0_linear_21_17)"/>
<path d="M28.7725 4.89185C31.7668 4.89185 34.0246 6.10066 35.5459 8.51827C37.0793 10.9233 37.846 14.279 37.846 18.5854C37.846 22.9043 37.0793 26.2853 35.5459 28.7281C34.0246 31.1583 31.7668 32.3734 28.7725 32.3734C25.7541 32.3734 23.4842 31.1583 21.9629 28.7281C20.4537 26.2853 19.6991 22.9043 19.6991 18.5854C19.6991 14.279 20.4537 10.9233 21.9629 8.51827C23.4842 6.10066 25.7541 4.89185 28.7725 4.89185ZM28.7725 9.21713C27.4927 9.21713 26.557 9.93486 25.9653 11.3703C25.3738 12.7932 25.0779 15.1982 25.0779 18.5854C25.0779 19.6935 25.0961 20.6819 25.1323 21.5507C25.1686 22.407 25.2229 23.1689 25.2953 23.8362L31.4166 10.4826C31.1269 10.0041 30.7647 9.67673 30.33 9.50043C29.9075 9.31157 29.3883 9.21713 28.7725 9.21713ZM32.4309 18.5854C32.4309 17.1374 32.4007 15.9159 32.3403 14.9211L26.563 27.3682C26.8287 27.6326 27.1425 27.8151 27.5047 27.9159C27.8791 28.0166 28.3016 28.067 28.7725 28.067C29.6298 28.067 30.324 27.7649 30.8553 27.1605C31.3986 26.5561 31.797 25.5613 32.0505 24.1762C32.3042 22.7785 32.4309 20.9149 32.4309 18.5854Z" fill="url(#paint1_linear_21_17)"/>
<path d="M50.5 4.89185C53.4943 4.89185 55.7521 6.10066 57.2734 8.51827C58.8068 10.9233 59.5734 14.279 59.5734 18.5854C59.5734 22.9043 58.8068 26.2853 57.2734 28.7281C55.7521 31.1583 53.4943 32.3734 50.5 32.3734C47.4815 32.3734 45.2117 31.1583 43.6904 28.7281C42.1812 26.2853 41.4266 22.9043 41.4266 18.5854C41.4266 14.279 42.1812 10.9233 43.6904 8.51827C45.2117 6.10066 47.4815 4.89185 50.5 4.89185ZM50.5 9.21713C49.2203 9.21713 48.2845 9.93486 47.6929 11.3703C47.1013 12.7932 46.8055 15.1982 46.8055 18.5854C46.8055 19.6935 46.8236 20.6819 46.8598 21.5507C46.896 22.407 46.9503 23.1689 47.0228 23.8362L53.1442 10.4826C52.8543 10.0041 52.4921 9.67673 52.0576 9.50043C51.6349 9.31157 51.1157 9.21713 50.5 9.21713ZM54.1584 18.5854C54.1584 17.1374 54.1282 15.9159 54.0679 14.9211L48.2905 27.3682C48.5561 27.6326 48.8701 27.8151 49.2323 27.9159C49.6066 28.0166 50.0292 28.067 50.5 28.067C51.3572 28.067 52.0515 27.7649 52.5828 27.1605C53.126 26.5561 53.5245 25.5613 53.778 24.1762C54.0316 22.7785 54.1584 20.9149 54.1584 18.5854Z" fill="url(#paint2_linear_21_17)"/>
<path d="M70.9235 32.3357L65.4903 30.5792L74.8536 10.0482H63.8241V5.55298H80.6489V9.59494L70.9235 32.3357Z" fill="url(#paint3_linear_21_17)"/>
<path d="M87.9241 0C91.2564 0 93.5927 0.522559 94.933 1.56768C96.2852 2.6128 96.8346 4.41341 96.5811 6.96955L96.0377 12.3714C95.941 13.3284 96.098 14.0776 96.5086 14.6191C96.9191 15.1605 97.5106 15.5445 98.2833 15.7712C99.0682 15.9852 99.9738 16.0923 101 16.0923V20.9276C99.9858 20.9276 99.0864 21.0409 98.3015 21.2675C97.5168 21.4816 96.9191 21.8593 96.5086 22.4008C96.098 22.9423 95.941 23.6915 96.0377 24.6484L96.5811 30.0125C96.8587 32.5939 96.3154 34.4071 94.951 35.4521C93.5987 36.4973 91.2564 37.0199 87.9241 37.0199V32.8645C89.0349 32.8645 89.8982 32.7008 90.5139 32.3735C91.1297 32.0587 91.3893 31.4228 91.2927 30.4659L90.7312 24.894C90.5864 23.4711 90.7312 22.3315 91.1659 21.4753C91.6126 20.6064 92.2888 19.9453 93.1944 19.4921C94.0998 19.0261 95.1623 18.6988 96.3817 18.5099C95.0898 18.3084 93.9912 17.9811 93.0857 17.5277C92.1922 17.0744 91.5403 16.4197 91.1297 15.5635C90.7192 14.6947 90.5864 13.5488 90.7312 12.1259L91.2927 6.55403C91.3893 5.59704 91.1236 4.96116 90.4959 4.64637C89.88 4.31899 89.0228 4.15529 87.9241 4.15529V0Z" fill="url(#paint4_linear_21_17)"/>
<path d="M18.746 45.748L12.272 64H6.708L0.234 45.748H4.966L9.49 59.528L14.04 45.748H18.746ZM21.8402 47.984C21.0602 47.984 20.4189 47.7587 19.9162 47.308C19.4309 46.84 19.1882 46.268 19.1882 45.592C19.1882 44.8987 19.4309 44.3267 19.9162 43.876C20.4189 43.408 21.0602 43.174 21.8402 43.174C22.6029 43.174 23.2269 43.408 23.7122 43.876C24.2149 44.3267 24.4662 44.8987 24.4662 45.592C24.4662 46.268 24.2149 46.84 23.7122 47.308C23.2269 47.7587 22.6029 47.984 21.8402 47.984ZM24.0502 49.492V64H19.6042V49.492H24.0502ZM35.1122 49.336C36.8108 49.336 38.1628 49.8907 39.1682 51C40.1908 52.092 40.7022 53.6 40.7022 55.524V64H36.2822V56.122C36.2822 55.1513 36.0308 54.3973 35.5282 53.86C35.0255 53.3227 34.3495 53.054 33.5002 53.054C32.6508 53.054 31.9748 53.3227 31.4722 53.86C30.9695 54.3973 30.7182 55.1513 30.7182 56.122V64H26.2722V49.492H30.7182V51.416C31.1688 50.7747 31.7755 50.272 32.5382 49.908C33.3008 49.5267 34.1588 49.336 35.1122 49.336ZM45.0277 47.984C44.2477 47.984 43.6064 47.7587 43.1037 47.308C42.6184 46.84 42.3757 46.268 42.3757 45.592C42.3757 44.8987 42.6184 44.3267 43.1037 43.876C43.6064 43.408 44.2477 43.174 45.0277 43.174C45.7904 43.174 46.4144 43.408 46.8997 43.876C47.4024 44.3267 47.6537 44.8987 47.6537 45.592C47.6537 46.268 47.4024 46.84 46.8997 47.308C46.4144 47.7587 45.7904 47.984 45.0277 47.984ZM47.2377 49.492V64H42.7917V49.492H47.2377ZM48.5757 56.746C48.5757 55.238 48.879 53.9207 49.4857 52.794C50.1097 51.6673 50.9677 50.8007 52.0597 50.194C53.169 49.5873 54.4343 49.284 55.8557 49.284C57.6757 49.284 59.1923 49.7607 60.4057 50.714C61.6363 51.6673 62.4423 53.0107 62.8237 54.744H58.0917C57.693 53.6347 56.9217 53.08 55.7777 53.08C54.963 53.08 54.313 53.4007 53.8277 54.042C53.3423 54.666 53.0997 55.5673 53.0997 56.746C53.0997 57.9247 53.3423 58.8347 53.8277 59.476C54.313 60.1 54.963 60.412 55.7777 60.412C56.9217 60.412 57.693 59.8573 58.0917 58.748H62.8237C62.4423 60.4467 61.6363 61.7813 60.4057 62.752C59.175 63.7227 57.6583 64.208 55.8557 64.208C54.4343 64.208 53.169 63.9047 52.0597 63.298C50.9677 62.6913 50.1097 61.8247 49.4857 60.698C48.879 59.5713 48.5757 58.254 48.5757 56.746ZM66.4378 47.984C65.6578 47.984 65.0165 47.7587 64.5138 47.308C64.0285 46.84 63.7858 46.268 63.7858 45.592C63.7858 44.8987 64.0285 44.3267 64.5138 43.876C65.0165 43.408 65.6578 43.174 66.4378 43.174C67.2005 43.174 67.8245 43.408 68.3098 43.876C68.8125 44.3267 69.0638 44.8987 69.0638 45.592C69.0638 46.268 68.8125 46.84 68.3098 47.308C67.8245 47.7587 67.2005 47.984 66.4378 47.984ZM68.6478 49.492V64H64.2018V49.492H68.6478ZM85.1958 49.492V64H80.7498V62.024C80.2991 62.6653 79.6838 63.1853 78.9038 63.584C78.1411 63.9653 77.2918 64.156 76.3558 64.156C75.2465 64.156 74.2671 63.9133 73.4178 63.428C72.5685 62.9253 71.9098 62.206 71.4418 61.27C70.9738 60.334 70.7398 59.2333 70.7398 57.968V49.492H75.1598V57.37C75.1598 58.3407 75.4111 59.0947 75.9138 59.632C76.4165 60.1693 77.0925 60.438 77.9418 60.438C78.8085 60.438 79.4931 60.1693 79.9958 59.632C80.4985 59.0947 80.7498 58.3407 80.7498 57.37V49.492H85.1958ZM93.2913 64.208C92.026 64.208 90.8993 63.9913 89.9113 63.558C88.9233 63.1247 88.1433 62.5353 87.5713 61.79C86.9993 61.0273 86.6787 60.178 86.6093 59.242H91.0033C91.0553 59.7447 91.2893 60.152 91.7053 60.464C92.1213 60.776 92.6327 60.932 93.2393 60.932C93.794 60.932 94.2187 60.828 94.5133 60.62C94.8253 60.3947 94.9813 60.1087 94.9813 59.762C94.9813 59.346 94.7647 59.0427 94.3313 58.852C93.898 58.644 93.196 58.4187 92.2253 58.176C91.1853 57.9333 90.3187 57.682 89.6253 57.422C88.932 57.1447 88.334 56.72 87.8313 56.148C87.3287 55.5587 87.0773 54.77 87.0773 53.782C87.0773 52.95 87.3027 52.196 87.7533 51.52C88.2213 50.8267 88.8973 50.2807 89.7813 49.882C90.6827 49.4833 91.7487 49.284 92.9793 49.284C94.7993 49.284 96.2293 49.7347 97.2693 50.636C98.3267 51.5373 98.9333 52.7333 99.0893 54.224H94.9813C94.912 53.7213 94.6867 53.3227 94.3053 53.028C93.9413 52.7333 93.456 52.586 92.8493 52.586C92.3293 52.586 91.9307 52.69 91.6533 52.898C91.376 53.0887 91.2373 53.3573 91.2373 53.704C91.2373 54.12 91.454 54.432 91.8873 54.64C92.338 54.848 93.0313 55.056 93.9673 55.264C95.042 55.5413 95.9173 55.8187 96.5933 56.096C97.2693 56.356 97.8587 56.7893 98.3613 57.396C98.8813 57.9853 99.15 58.7827 99.1673 59.788C99.1673 60.6373 98.9247 61.4 98.4393 62.076C97.9713 62.7347 97.2867 63.2547 96.3853 63.636C95.5013 64.0173 94.47 64.208 93.2913 64.208Z" fill="url(#paint5_linear_21_17)"/>
</g>
<defs>
<linearGradient id="paint0_linear_21_17" x1="-2.13459" y1="39.8697" x2="105.031" y2="3.49574" gradientUnits="userSpaceOnUse">
<stop stop-color="#00C0FD"/>
<stop offset="1" stop-color="#E70FAA"/>
</linearGradient>
<linearGradient id="paint1_linear_21_17" x1="-2.13459" y1="39.8697" x2="105.031" y2="3.49568" gradientUnits="userSpaceOnUse">
<stop stop-color="#00C0FD"/>
<stop offset="1" stop-color="#E70FAA"/>
</linearGradient>
<linearGradient id="paint2_linear_21_17" x1="-2.13458" y1="39.8697" x2="105.031" y2="3.49569" gradientUnits="userSpaceOnUse">
<stop stop-color="#00C0FD"/>
<stop offset="1" stop-color="#E70FAA"/>
</linearGradient>
<linearGradient id="paint3_linear_21_17" x1="-2.13457" y1="39.8697" x2="105.031" y2="3.49575" gradientUnits="userSpaceOnUse">
<stop stop-color="#00C0FD"/>
<stop offset="1" stop-color="#E70FAA"/>
</linearGradient>
<linearGradient id="paint4_linear_21_17" x1="-2.13459" y1="39.8697" x2="105.031" y2="3.49575" gradientUnits="userSpaceOnUse">
<stop stop-color="#00C0FD"/>
<stop offset="1" stop-color="#E70FAA"/>
</linearGradient>
<linearGradient id="paint5_linear_21_17" x1="-4.83662" y1="54.5001" x2="101" y2="54.5001" gradientUnits="userSpaceOnUse">
<stop offset="0.0260229" stop-color="#13B0F5"/>
<stop offset="1" stop-color="#E70FAA"/>
</linearGradient>
<clipPath id="clip0_21_17">
<rect width="101" height="64" fill="white"/>
</clipPath>
</defs>
</svg>
